<?xml version="1.0" encoding="UTF-8" standalone="no"?>
<!-- Generator: Adobe Illustrator 15.0.2, SVG Export Plug-In . SVG Version: 6.00 Build 0)  -->

<svg
   xmlns:dc="http://purl.org/dc/elements/1.1/"
   xmlns:cc="http://creativecommons.org/ns#"
   xmlns:rdf="http://www.w3.org/1999/02/22-rdf-syntax-ns#"
   xmlns:svg="http://www.w3.org/2000/svg"
   xmlns="http://www.w3.org/2000/svg"
   xmlns:sodipodi="http://sodipodi.sourceforge.net/DTD/sodipodi-0.dtd"
   xmlns:inkscape="http://www.inkscape.org/namespaces/inkscape"
   version="1.1"
   id="Layer_1"
   x="0px"
   y="0px"
   width="30px"
   height="30px"
   viewBox="0 0 30 30"
   xml:space="preserve"
   inkscape:version="0.48.0 r9654"
   sodipodi:docname="Arrow_North_CFCF.svg"
   inkscape:export-filename="L:\Applications\Mapfish\sitn_c2cgeoportal\print\north.png"
   inkscape:export-xdpi="670.64081"
   inkscape:export-ydpi="670.64081"><metadata
   id="metadata11"><rdf:RDF><cc:Work
       rdf:about=""><dc:format>image/svg+xml</dc:format><dc:type
         rdf:resource="http://purl.org/dc/dcmitype/StillImage" /><dc:title></dc:title></cc:Work></rdf:RDF></metadata><defs
   id="defs9" /><sodipodi:namedview
   pagecolor="#ffffff"
   bordercolor="#666666"
   borderopacity="1"
   objecttolerance="10"
   gridtolerance="10"
   guidetolerance="10"
   inkscape:pageopacity="0"
   inkscape:pageshadow="2"
   inkscape:window-width="640"
   inkscape:window-height="480"
   id="namedview7"
   showgrid="false"
   inkscape:zoom="10.1"
   inkscape:cx="15"
   inkscape:cy="15"
   inkscape:window-x="0"
   inkscape:window-y="0"
   inkscape:window-maximized="0"
   inkscape:current-layer="Layer_1" />
<g
   id="g3">
	<path
   d="M15.094,10.92l9.41,17.365l-9.41-2.169l-9.41,2.169L15.094,10.92z M15.094,11.549l-8.806,16.28l8.806-2.046V11.549z    M17.41,6.483v1.541v1.565c0,0.205,0.002,0.355,0.006,0.45c0.004,0.095,0.01,0.175,0.019,0.24c-0.017,0.042-0.048,0.07-0.093,0.086   s-0.121,0.033-0.228,0.049c-0.189-0.197-0.359-0.384-0.511-0.561c-0.152-0.176-0.294-0.351-0.426-0.523l-1.921-2.478   c-0.058-0.082-0.148-0.197-0.271-0.345c-0.312-0.402-0.529-0.673-0.653-0.813l-0.024,0.48v2.07c0,0.764,0.039,1.231,0.117,1.399   c0.078,0.168,0.253,0.273,0.524,0.314l0.185,0.024c0,0.017,0.004,0.039,0.012,0.068s0.012,0.052,0.012,0.068   c0,0.017-0.002,0.035-0.006,0.056c-0.004,0.021-0.019,0.051-0.043,0.092c-0.082-0.008-0.189-0.017-0.32-0.025   c-0.362-0.016-0.6-0.024-0.714-0.024c-0.107,0-0.333,0.012-0.678,0.037c-0.115,0.008-0.201,0.012-0.259,0.012l-0.024-0.284   l0.185-0.024c0.345-0.008,0.525-0.439,0.542-1.294c0-0.313,0.004-0.563,0.012-0.752V5.719c0-0.271-0.024-0.501-0.074-0.69   S12.66,4.701,12.569,4.61c-0.074-0.049-0.152-0.09-0.234-0.123s-0.172-0.058-0.271-0.074l-0.123-0.025   c0-0.008-0.004-0.022-0.012-0.043c-0.008-0.021-0.013-0.039-0.013-0.056c0-0.024,0.006-0.051,0.019-0.08s0.031-0.056,0.056-0.08   h0.333h1.306c0.279,0.444,0.636,0.924,1.071,1.442c0.115,0.14,0.197,0.243,0.247,0.308l1.995,2.44l0.025-0.197V6.175   c0-0.756-0.044-1.226-0.13-1.411s-0.265-0.302-0.535-0.351l-0.173-0.025l0.024-0.259c0.164,0,0.365,0.004,0.604,0.012   c0.238,0.008,0.39,0.012,0.456,0.012c0.065,0,0.199-0.004,0.4-0.012c0.201-0.008,0.371-0.012,0.511-0.012l0.024,0.259l-0.185,0.049   c-0.024,0.008-0.054,0.017-0.086,0.024c-0.164,0.049-0.275,0.115-0.333,0.197c-0.041,0.066-0.073,0.257-0.099,0.573   C17.422,5.549,17.41,5.966,17.41,6.483z"
   id="path5" />
</g>
</svg>